<?xml version="1.0" encoding="UTF-8" standalone="no"?>
<svg
   xmlns:dc="http://purl.org/dc/elements/1.1/"
   xmlns:cc="http://creativecommons.org/ns#"
   xmlns:rdf="http://www.w3.org/1999/02/22-rdf-syntax-ns#"
   xmlns:svg="http://www.w3.org/2000/svg"
   xmlns="http://www.w3.org/2000/svg"
   xmlns:sodipodi="http://sodipodi.sourceforge.net/DTD/sodipodi-0.dtd"
   xmlns:inkscape="http://www.inkscape.org/namespaces/inkscape"
   width="13.21987mm"
   height="52.916664mm"
   viewBox="0 0 13.21987 52.916664"
   version="1.1"
   id="svg8"
   inkscape:version="1.0.2 (e86c8708, 2021-01-15)"
   sodipodi:docname="weightIcon.svg"
   inkscape:export-filename="/Users/rubenhernandez/Developer/ReactNative/MixLift/mixlift/assets/images/weightIco_Big.png"
   inkscape:export-xdpi="96"
   inkscape:export-ydpi="96">
  <defs
     id="defs2">
    <inkscape:path-effect
       effect="bspline"
       id="path-effect922"
       is_visible="true"
       lpeversion="1"
       weight="33.333333"
       steps="2"
       helper_size="0"
       apply_no_weight="true"
       apply_with_weight="true"
       only_selected="false" />
    <inkscape:path-effect
       effect="bspline"
       id="path-effect920"
       is_visible="true"
       lpeversion="1"
       weight="33.333333"
       steps="2"
       helper_size="0"
       apply_no_weight="true"
       apply_with_weight="true"
       only_selected="false" />
    <inkscape:path-effect
       effect="bspline"
       id="path-effect918"
       is_visible="true"
       lpeversion="1"
       weight="33.333333"
       steps="2"
       helper_size="0"
       apply_no_weight="true"
       apply_with_weight="true"
       only_selected="false" />
    <inkscape:path-effect
       effect="bspline"
       id="path-effect916"
       is_visible="true"
       lpeversion="1"
       weight="33.333333"
       steps="2"
       helper_size="0"
       apply_no_weight="true"
       apply_with_weight="true"
       only_selected="false" />
    <inkscape:path-effect
       effect="bspline"
       id="path-effect900"
       is_visible="true"
       lpeversion="1"
       weight="33.333333"
       steps="2"
       helper_size="0"
       apply_no_weight="true"
       apply_with_weight="true"
       only_selected="false" />
    <inkscape:path-effect
       effect="bspline"
       id="path-effect898"
       is_visible="true"
       lpeversion="1"
       weight="33.333333"
       steps="2"
       helper_size="0"
       apply_no_weight="true"
       apply_with_weight="true"
       only_selected="false" />
    <inkscape:path-effect
       effect="bspline"
       id="path-effect896"
       is_visible="true"
       lpeversion="1"
       weight="33.333333"
       steps="2"
       helper_size="0"
       apply_no_weight="true"
       apply_with_weight="true"
       only_selected="false" />
    <inkscape:path-effect
       effect="bspline"
       id="path-effect894"
       is_visible="true"
       lpeversion="1"
       weight="33.333333"
       steps="2"
       helper_size="0"
       apply_no_weight="true"
       apply_with_weight="true"
       only_selected="false" />
    <inkscape:path-effect
       effect="bspline"
       id="path-effect870"
       is_visible="true"
       lpeversion="1"
       weight="33.333333"
       steps="2"
       helper_size="0"
       apply_no_weight="true"
       apply_with_weight="true"
       only_selected="false" />
    <inkscape:path-effect
       effect="bspline"
       id="path-effect868"
       is_visible="true"
       lpeversion="1"
       weight="33.333333"
       steps="2"
       helper_size="0"
       apply_no_weight="true"
       apply_with_weight="true"
       only_selected="false" />
    <inkscape:path-effect
       effect="bspline"
       id="path-effect979"
       is_visible="true"
       lpeversion="1"
       weight="33.333333"
       steps="2"
       helper_size="0"
       apply_no_weight="true"
       apply_with_weight="true"
       only_selected="false" />
    <inkscape:path-effect
       effect="bspline"
       id="path-effect977"
       is_visible="true"
       lpeversion="1"
       weight="33.333333"
       steps="2"
       helper_size="0"
       apply_no_weight="true"
       apply_with_weight="true"
       only_selected="false" />
    <inkscape:path-effect
       effect="bspline"
       id="path-effect969"
       is_visible="true"
       lpeversion="1"
       weight="33.333333"
       steps="2"
       helper_size="0"
       apply_no_weight="true"
       apply_with_weight="true"
       only_selected="false" />
    <inkscape:path-effect
       effect="bspline"
       id="path-effect967"
       is_visible="true"
       lpeversion="1"
       weight="33.333333"
       steps="2"
       helper_size="0"
       apply_no_weight="true"
       apply_with_weight="true"
       only_selected="false" />
    <inkscape:path-effect
       effect="bspline"
       id="path-effect959"
       is_visible="true"
       lpeversion="1"
       weight="33.333333"
       steps="2"
       helper_size="0"
       apply_no_weight="true"
       apply_with_weight="true"
       only_selected="false" />
    <inkscape:path-effect
       effect="bspline"
       id="path-effect957"
       is_visible="true"
       lpeversion="1"
       weight="33.333333"
       steps="2"
       helper_size="0"
       apply_no_weight="true"
       apply_with_weight="true"
       only_selected="false" />
    <inkscape:path-effect
       effect="bspline"
       id="path-effect949"
       is_visible="true"
       lpeversion="1"
       weight="33.333333"
       steps="2"
       helper_size="0"
       apply_no_weight="true"
       apply_with_weight="true"
       only_selected="false" />
    <inkscape:path-effect
       effect="bspline"
       id="path-effect947"
       is_visible="true"
       lpeversion="1"
       weight="33.333333"
       steps="2"
       helper_size="0"
       apply_no_weight="true"
       apply_with_weight="true"
       only_selected="false" />
    <inkscape:path-effect
       effect="bspline"
       id="path-effect939"
       is_visible="true"
       lpeversion="1"
       weight="33.333333"
       steps="2"
       helper_size="0"
       apply_no_weight="true"
       apply_with_weight="true"
       only_selected="false" />
    <inkscape:path-effect
       effect="bspline"
       id="path-effect937"
       is_visible="true"
       lpeversion="1"
       weight="33.333333"
       steps="2"
       helper_size="0"
       apply_no_weight="true"
       apply_with_weight="true"
       only_selected="false" />
    <inkscape:path-effect
       effect="bspline"
       id="path-effect929"
       is_visible="true"
       lpeversion="1"
       weight="33.333333"
       steps="2"
       helper_size="0"
       apply_no_weight="true"
       apply_with_weight="true"
       only_selected="false" />
    <inkscape:path-effect
       effect="bspline"
       id="path-effect927"
       is_visible="true"
       lpeversion="1"
       weight="33.333333"
       steps="2"
       helper_size="0"
       apply_no_weight="true"
       apply_with_weight="true"
       only_selected="false" />
    <inkscape:path-effect
       effect="bspline"
       id="path-effect919"
       is_visible="true"
       lpeversion="1"
       weight="33.333333"
       steps="2"
       helper_size="0"
       apply_no_weight="true"
       apply_with_weight="true"
       only_selected="false" />
    <inkscape:path-effect
       effect="bspline"
       id="path-effect917"
       is_visible="true"
       lpeversion="1"
       weight="33.333333"
       steps="2"
       helper_size="0"
       apply_no_weight="true"
       apply_with_weight="true"
       only_selected="false" />
    <inkscape:path-effect
       effect="bspline"
       id="path-effect887"
       is_visible="true"
       lpeversion="1"
       weight="33.333333"
       steps="2"
       helper_size="0"
       apply_no_weight="true"
       apply_with_weight="true"
       only_selected="false" />
    <inkscape:path-effect
       effect="bspline"
       id="path-effect883"
       is_visible="true"
       lpeversion="1"
       weight="33.333333"
       steps="2"
       helper_size="0"
       apply_no_weight="true"
       apply_with_weight="true"
       only_selected="false" />
    <inkscape:path-effect
       effect="bspline"
       id="path-effect879"
       is_visible="true"
       lpeversion="1"
       weight="33.333333"
       steps="2"
       helper_size="0"
       apply_no_weight="true"
       apply_with_weight="true"
       only_selected="false" />
    <inkscape:path-effect
       effect="bspline"
       id="path-effect869"
       is_visible="true"
       lpeversion="1"
       weight="33.333333"
       steps="2"
       helper_size="0"
       apply_no_weight="true"
       apply_with_weight="true"
       only_selected="false" />
    <inkscape:perspective
       sodipodi:type="inkscape:persp3d"
       inkscape:vp_x="0 : -95.583343 : 1"
       inkscape:vp_y="0 : 1000 : 0"
       inkscape:vp_z="210.00001 : -95.583343 : 1"
       inkscape:persp3d-origin="105 : -145.08334 : 1"
       id="perspective833" />
    <clipPath
       clipPathUnits="userSpaceOnUse"
       id="clipPath873">
      <rect
         style="opacity:0.4;fill:#ff5555;stroke:none;stroke-width:2;stroke-linecap:round;stroke-linejoin:round;stroke-miterlimit:4;stroke-dasharray:none;paint-order:fill markers stroke"
         id="rect875"
         width="11.245367"
         height="49.920315"
         x="-66.253777"
         y="53.111568"
         d="M -66.253777,53.111568 H -55.00841 V 103.03188 H -66.253777 Z" />
    </clipPath>
  </defs>
  <sodipodi:namedview
     id="base"
     pagecolor="#ffffff"
     bordercolor="#666666"
     borderopacity="1.0"
     inkscape:pageopacity="0.0"
     inkscape:pageshadow="2"
     inkscape:zoom="5.2923358"
     inkscape:cx="5.5675898"
     inkscape:cy="22.741892"
     inkscape:document-units="mm"
     inkscape:current-layer="layer1"
     inkscape:document-rotation="0"
     showgrid="false"
     inkscape:window-width="1512"
     inkscape:window-height="922"
     inkscape:window-x="0"
     inkscape:window-y="32"
     inkscape:window-maximized="0"
     fit-margin-top="0"
     fit-margin-left="0"
     fit-margin-right="0"
     fit-margin-bottom="0"
     showborder="false"
     inkscape:snap-global="false" />
  <metadata
     id="metadata5">
    <rdf:RDF>
      <cc:Work
         rdf:about="">
        <dc:format>image/svg+xml</dc:format>
        <dc:type
           rdf:resource="http://purl.org/dc/dcmitype/StillImage" />
        <dc:title />
      </cc:Work>
    </rdf:RDF>
  </metadata>
  <g
     inkscape:label="Layer 1"
     inkscape:groupmode="layer"
     id="layer1"
     transform="translate(62.53105,-54.709927)">
    <g
       id="g878"
       transform="matrix(0.88548822,0,0,0.95008981,-7.1623332,3.4712265)"
       inkscape:export-xdpi="96"
       inkscape:export-ydpi="96">
      <g
         id="g909"
         style="fill:none;stroke:#000000;stroke-width:1.5;stroke-miterlimit:4;stroke-dasharray:none"
         transform="matrix(0.40813965,0,0,0.29131806,-37.097628,38.771671)">
        <path
           style="fill:none;stroke:#000000;stroke-width:1.5;stroke-linecap:butt;stroke-linejoin:miter;stroke-miterlimit:4;stroke-dasharray:none;stroke-opacity:1"
           d="m -60.194133,90.83706 c -0.007,-6.491322 0.01471,-19.47423 0.06887,-26.095788 0.05416,-6.621557 0.140856,-6.881643 0.281751,-7.141794 0.140896,-0.260152 0.335961,-0.520239 0.531065,-0.726182 0.195105,-0.205942 0.390171,-0.35766 0.581509,-0.511976 0.191339,-0.154317 0.378947,-0.311226 1.376104,-0.397915 0.997158,-0.08669 2.803541,-0.103166 3.869339,-0.03547 1.065799,0.0677 1.390907,0.219416 1.553305,0.295201 0.162398,0.07579 0.617558,0.530946 0.73689,0.671975 0.119332,0.141028 0.357745,0.422789 0.498542,0.661219 0.140796,0.23843 0.184145,0.433497 0.216621,6.968407 0.03248,6.53491 0.05415,19.409191 0.03246,26.052345 -0.02169,6.643154 -0.08671,7.054954 -0.205926,7.379988 -0.119212,0.325034 -0.292602,0.563445 -0.509331,0.81268 -0.21673,0.249235 -0.476812,0.509319 -0.704317,0.671852 -0.227505,0.162534 -0.422566,0.227555 -1.376203,0.281763 -0.953638,0.05421 -2.665874,0.09755 -3.662864,0.05428 -0.99699,-0.04327 -1.27875,-0.173314 -1.549693,-0.335835 -0.270943,-0.162521 -0.531032,-0.357589 -0.7478,-0.552631 -0.216767,-0.195043 -0.390156,-0.390106 -0.534842,-0.650163 -0.144686,-0.260057 -0.260537,-0.585166 -0.336602,-0.747901 -0.07606,-0.162735 -0.111915,-0.162737 -0.118878,-6.65406 z"
           id="path877"
           inkscape:path-effect="#path-effect879"
           inkscape:original-d="m -60.222768,97.328382 c 0.02193,-12.982644 0.04361,-25.965552 0.06502,-38.948728 0.08697,-0.259831 0.17366,-0.519919 0.260094,-0.780275 0.195336,-0.259831 0.3904,-0.519919 0.585205,-0.780274 0.195337,-0.151458 0.390403,-0.303176 0.585206,-0.45516 0.187885,-0.156656 0.375493,-0.313565 0.562848,-0.47075 1.806723,-0.01621 3.613106,-0.03269 5.419261,-0.04943 0.325386,0.151987 0.650494,0.303704 0.975344,0.45516 l 0.45516,0.45516 c 0.238687,0.282038 0.4771,0.563798 0.715253,0.845298 0.04361,0.195337 0.08696,0.390404 0.130045,0.585206 0.02194,12.875061 0.04361,25.749342 0.06502,38.623617 -0.06476,0.41208 -0.129781,0.82388 -0.195068,1.23543 -0.173134,0.23869 -0.346525,0.4771 -0.520184,0.71525 -0.259832,0.26037 -0.519918,0.52045 -0.780275,0.78028 -0.194808,0.0653 -0.389873,0.13031 -0.585206,0.19507 -1.71204,0.0436 -3.424275,0.087 -5.136809,0.13004 -0.281509,-0.12978 -0.563269,-0.25982 -0.845299,-0.39013 -0.259832,-0.19481 -0.51992,-0.38988 -0.780275,-0.58521 -0.173133,-0.19481 -0.346525,-0.38987 -0.520184,-0.58521 -0.116046,-0.324648 -0.231897,-0.649757 -0.347558,-0.97534 -0.03615,2.63e-4 -0.072,2.62e-4 -0.107598,-4e-6 z"
           sodipodi:nodetypes="scccccccccccccccccccss"
           clip-path="url(#clipPath873)"
           transform="translate(-1.5856452,-0.42471831)" />
        <path
           style="fill:none;stroke:#000000;stroke-width:1.5;stroke-linecap:butt;stroke-linejoin:miter;stroke-miterlimit:4;stroke-dasharray:none;stroke-opacity:1"
           d="m -60.194133,90.83706 c -0.007,-6.491322 0.01471,-19.47423 0.06887,-26.095788 0.05416,-6.621557 0.140856,-6.881643 0.281751,-7.141794 0.140896,-0.260152 0.335961,-0.520239 0.531065,-0.726182 0.195105,-0.205942 0.390171,-0.35766 0.581509,-0.511976 0.191339,-0.154317 0.378947,-0.311226 1.376104,-0.397915 0.997158,-0.08669 2.803541,-0.103166 3.869339,-0.03547 1.065799,0.0677 1.390907,0.219416 1.553305,0.295201 0.162398,0.07579 0.617558,0.530946 0.73689,0.671975 0.119332,0.141028 0.357745,0.422789 0.498542,0.661219 0.140796,0.23843 0.184145,0.433497 0.216621,6.968407 0.03248,6.53491 0.05415,19.409191 0.03246,26.052345 -0.02169,6.643154 -0.08671,7.054954 -0.205926,7.379988 -0.119212,0.325034 -0.292602,0.563445 -0.509331,0.81268 -0.21673,0.249235 -0.476812,0.509319 -0.704317,0.671852 -0.227505,0.162534 -0.422566,0.227555 -1.376203,0.281763 -0.953638,0.05421 -2.665874,0.09755 -3.662864,0.05428 -0.99699,-0.04327 -1.27875,-0.173314 -1.549693,-0.335835 -0.270943,-0.162521 -0.531032,-0.357589 -0.7478,-0.552631 -0.216767,-0.195043 -0.390156,-0.390106 -0.534842,-0.650163 -0.144686,-0.260057 -0.260537,-0.585166 -0.336602,-0.747901 -0.07606,-0.162735 -0.111915,-0.162737 -0.118878,-6.65406 z"
           id="path885"
           inkscape:path-effect="#path-effect887"
           inkscape:original-d="m -60.222768,97.328382 c 0.02193,-12.982644 0.04361,-25.965552 0.06502,-38.948728 0.08697,-0.259831 0.17366,-0.519919 0.260094,-0.780275 0.195336,-0.259831 0.3904,-0.519919 0.585205,-0.780274 0.195337,-0.151458 0.390403,-0.303176 0.585206,-0.45516 0.187885,-0.156656 0.375493,-0.313565 0.562848,-0.47075 1.806723,-0.01621 3.613106,-0.03269 5.419261,-0.04943 0.325386,0.151987 0.650494,0.303704 0.975344,0.45516 l 0.45516,0.45516 c 0.238687,0.282038 0.4771,0.563798 0.715253,0.845298 0.04361,0.195337 0.08696,0.390404 0.130045,0.585206 0.02194,12.875061 0.04361,25.749342 0.06502,38.623617 -0.06476,0.41208 -0.129781,0.82388 -0.195068,1.23543 -0.173134,0.23869 -0.346525,0.4771 -0.520184,0.71525 -0.259832,0.26037 -0.519918,0.52045 -0.780275,0.78028 -0.194808,0.0653 -0.389873,0.13031 -0.585206,0.19507 -1.71204,0.0436 -3.424275,0.087 -5.136809,0.13004 -0.281509,-0.12978 -0.563269,-0.25982 -0.845299,-0.39013 -0.259832,-0.19481 -0.51992,-0.38988 -0.780275,-0.58521 -0.173133,-0.19481 -0.346525,-0.38987 -0.520184,-0.58521 -0.116046,-0.324648 -0.231897,-0.649757 -0.347558,-0.97534 -0.03615,2.63e-4 -0.072,2.62e-4 -0.107598,-4e-6 z"
           sodipodi:nodetypes="scccccccccccccccccccss"
           clip-path="url(#clipPath873)"
           transform="matrix(-1,0,0,1,-112.13163,-0.42471831)" />
      </g>
      <g
         id="g866"
         style="fill:#4d4d4d;stroke:#ffffff;stroke-width:0.924857;stroke-miterlimit:4;stroke-dasharray:none"
         transform="matrix(0.37365895,0,0,0.2815906,-39.085153,39.497727)">
        <path
           style="fill:#4d4d4d;stroke:#ffffff;stroke-width:0.924857;stroke-linecap:butt;stroke-linejoin:miter;stroke-miterlimit:4;stroke-dasharray:none;stroke-opacity:1"
           d="m -60.194133,90.83706 c -0.007,-6.491322 0.01471,-19.47423 0.06887,-26.095788 0.05416,-6.621557 0.140856,-6.881643 0.281751,-7.141794 0.140896,-0.260152 0.335961,-0.520239 0.531065,-0.726182 0.195105,-0.205942 0.390171,-0.35766 0.581509,-0.511976 0.191339,-0.154317 0.378947,-0.311226 1.376104,-0.397915 0.997158,-0.08669 2.803541,-0.103166 3.869339,-0.03547 1.065799,0.0677 1.390907,0.219416 1.553305,0.295201 0.162398,0.07579 0.617558,0.530946 0.73689,0.671975 0.119332,0.141028 0.357745,0.422789 0.498542,0.661219 0.140796,0.23843 0.184145,0.433497 0.216621,6.968407 0.03248,6.53491 0.05415,19.409191 0.03246,26.052345 -0.02169,6.643154 -0.08671,7.054954 -0.205926,7.379988 -0.119212,0.325034 -0.292602,0.563445 -0.509331,0.81268 -0.21673,0.249235 -0.476812,0.509319 -0.704317,0.671852 -0.227505,0.162534 -0.422566,0.227555 -1.376203,0.281763 -0.953638,0.05421 -2.665874,0.09755 -3.662864,0.05428 -0.99699,-0.04327 -1.27875,-0.173314 -1.549693,-0.335835 -0.270943,-0.162521 -0.531032,-0.357589 -0.7478,-0.552631 -0.216767,-0.195043 -0.390156,-0.390106 -0.534842,-0.650163 -0.144686,-0.260057 -0.260537,-0.585166 -0.336602,-0.747901 -0.07606,-0.162735 -0.111915,-0.162737 -0.118878,-6.65406 z"
           id="path862"
           inkscape:path-effect="#path-effect868"
           inkscape:original-d="m -60.222768,97.328382 c 0.02193,-12.982644 0.04361,-25.965552 0.06502,-38.948728 0.08697,-0.259831 0.17366,-0.519919 0.260094,-0.780275 0.195336,-0.259831 0.3904,-0.519919 0.585205,-0.780274 0.195337,-0.151458 0.390403,-0.303176 0.585206,-0.45516 0.187885,-0.156656 0.375493,-0.313565 0.562848,-0.47075 1.806723,-0.01621 3.613106,-0.03269 5.419261,-0.04943 0.325386,0.151987 0.650494,0.303704 0.975344,0.45516 l 0.45516,0.45516 c 0.238687,0.282038 0.4771,0.563798 0.715253,0.845298 0.04361,0.195337 0.08696,0.390404 0.130045,0.585206 0.02194,12.875061 0.04361,25.749342 0.06502,38.623617 -0.06476,0.41208 -0.129781,0.82388 -0.195068,1.23543 -0.173134,0.23869 -0.346525,0.4771 -0.520184,0.71525 -0.259832,0.26037 -0.519918,0.52045 -0.780275,0.78028 -0.194808,0.0653 -0.389873,0.13031 -0.585206,0.19507 -1.71204,0.0436 -3.424275,0.087 -5.136809,0.13004 -0.281509,-0.12978 -0.563269,-0.25982 -0.845299,-0.39013 -0.259832,-0.19481 -0.51992,-0.38988 -0.780275,-0.58521 -0.173133,-0.19481 -0.346525,-0.38987 -0.520184,-0.58521 -0.116046,-0.324648 -0.231897,-0.649757 -0.347558,-0.97534 -0.03615,2.63e-4 -0.072,2.62e-4 -0.107598,-4e-6 z"
           sodipodi:nodetypes="scccccccccccccccccccss"
           clip-path="url(#clipPath873)"
           transform="translate(-1.5856452,-0.42471831)" />
        <path
           style="fill:#4d4d4d;stroke:#ffffff;stroke-width:0.924857;stroke-linecap:butt;stroke-linejoin:miter;stroke-miterlimit:4;stroke-dasharray:none;stroke-opacity:1"
           d="m -60.194133,90.83706 c -0.007,-6.491322 0.01471,-19.47423 0.06887,-26.095788 0.05416,-6.621557 0.140856,-6.881643 0.281751,-7.141794 0.140896,-0.260152 0.335961,-0.520239 0.531065,-0.726182 0.195105,-0.205942 0.390171,-0.35766 0.581509,-0.511976 0.191339,-0.154317 0.378947,-0.311226 1.376104,-0.397915 0.997158,-0.08669 2.803541,-0.103166 3.869339,-0.03547 1.065799,0.0677 1.390907,0.219416 1.553305,0.295201 0.162398,0.07579 0.617558,0.530946 0.73689,0.671975 0.119332,0.141028 0.357745,0.422789 0.498542,0.661219 0.140796,0.23843 0.184145,0.433497 0.216621,6.968407 0.03248,6.53491 0.05415,19.409191 0.03246,26.052345 -0.02169,6.643154 -0.08671,7.054954 -0.205926,7.379988 -0.119212,0.325034 -0.292602,0.563445 -0.509331,0.81268 -0.21673,0.249235 -0.476812,0.509319 -0.704317,0.671852 -0.227505,0.162534 -0.422566,0.227555 -1.376203,0.281763 -0.953638,0.05421 -2.665874,0.09755 -3.662864,0.05428 -0.99699,-0.04327 -1.27875,-0.173314 -1.549693,-0.335835 -0.270943,-0.162521 -0.531032,-0.357589 -0.7478,-0.552631 -0.216767,-0.195043 -0.390156,-0.390106 -0.534842,-0.650163 -0.144686,-0.260057 -0.260537,-0.585166 -0.336602,-0.747901 -0.07606,-0.162735 -0.111915,-0.162737 -0.118878,-6.65406 z"
           id="path864"
           inkscape:path-effect="#path-effect870"
           inkscape:original-d="m -60.222768,97.328382 c 0.02193,-12.982644 0.04361,-25.965552 0.06502,-38.948728 0.08697,-0.259831 0.17366,-0.519919 0.260094,-0.780275 0.195336,-0.259831 0.3904,-0.519919 0.585205,-0.780274 0.195337,-0.151458 0.390403,-0.303176 0.585206,-0.45516 0.187885,-0.156656 0.375493,-0.313565 0.562848,-0.47075 1.806723,-0.01621 3.613106,-0.03269 5.419261,-0.04943 0.325386,0.151987 0.650494,0.303704 0.975344,0.45516 l 0.45516,0.45516 c 0.238687,0.282038 0.4771,0.563798 0.715253,0.845298 0.04361,0.195337 0.08696,0.390404 0.130045,0.585206 0.02194,12.875061 0.04361,25.749342 0.06502,38.623617 -0.06476,0.41208 -0.129781,0.82388 -0.195068,1.23543 -0.173134,0.23869 -0.346525,0.4771 -0.520184,0.71525 -0.259832,0.26037 -0.519918,0.52045 -0.780275,0.78028 -0.194808,0.0653 -0.389873,0.13031 -0.585206,0.19507 -1.71204,0.0436 -3.424275,0.087 -5.136809,0.13004 -0.281509,-0.12978 -0.563269,-0.25982 -0.845299,-0.39013 -0.259832,-0.19481 -0.51992,-0.38988 -0.780275,-0.58521 -0.173133,-0.19481 -0.346525,-0.38987 -0.520184,-0.58521 -0.116046,-0.324648 -0.231897,-0.649757 -0.347558,-0.97534 -0.03615,2.63e-4 -0.072,2.62e-4 -0.107598,-4e-6 z"
           sodipodi:nodetypes="scccccccccccccccccccss"
           clip-path="url(#clipPath873)"
           transform="matrix(-1,0,0,1,-112.13163,-0.42471831)" />
      </g>
    </g>
    <g
       id="g892"
       transform="matrix(0.62642826,0,0,0.80066876,-26.289893,12.875656)"
       inkscape:export-xdpi="96"
       inkscape:export-ydpi="96">
      <g
         id="g884"
         style="fill:none;stroke:#000000;stroke-width:1.5;stroke-miterlimit:4;stroke-dasharray:none"
         transform="matrix(0.40813965,0,0,0.29131806,-37.097628,38.771671)">
        <path
           style="fill:none;stroke:#000000;stroke-width:1.5;stroke-linecap:butt;stroke-linejoin:miter;stroke-miterlimit:4;stroke-dasharray:none;stroke-opacity:1"
           d="m -60.194133,90.83706 c -0.007,-6.491322 0.01471,-19.47423 0.06887,-26.095788 0.05416,-6.621557 0.140856,-6.881643 0.281751,-7.141794 0.140896,-0.260152 0.335961,-0.520239 0.531065,-0.726182 0.195105,-0.205942 0.390171,-0.35766 0.581509,-0.511976 0.191339,-0.154317 0.378947,-0.311226 1.376104,-0.397915 0.997158,-0.08669 2.803541,-0.103166 3.869339,-0.03547 1.065799,0.0677 1.390907,0.219416 1.553305,0.295201 0.162398,0.07579 0.617558,0.530946 0.73689,0.671975 0.119332,0.141028 0.357745,0.422789 0.498542,0.661219 0.140796,0.23843 0.184145,0.433497 0.216621,6.968407 0.03248,6.53491 0.05415,19.409191 0.03246,26.052345 -0.02169,6.643154 -0.08671,7.054954 -0.205926,7.379988 -0.119212,0.325034 -0.292602,0.563445 -0.509331,0.81268 -0.21673,0.249235 -0.476812,0.509319 -0.704317,0.671852 -0.227505,0.162534 -0.422566,0.227555 -1.376203,0.281763 -0.953638,0.05421 -2.665874,0.09755 -3.662864,0.05428 -0.99699,-0.04327 -1.27875,-0.173314 -1.549693,-0.335835 -0.270943,-0.162521 -0.531032,-0.357589 -0.7478,-0.552631 -0.216767,-0.195043 -0.390156,-0.390106 -0.534842,-0.650163 -0.144686,-0.260057 -0.260537,-0.585166 -0.336602,-0.747901 -0.07606,-0.162735 -0.111915,-0.162737 -0.118878,-6.65406 z"
           id="path880"
           inkscape:path-effect="#path-effect894"
           inkscape:original-d="m -60.222768,97.328382 c 0.02193,-12.982644 0.04361,-25.965552 0.06502,-38.948728 0.08697,-0.259831 0.17366,-0.519919 0.260094,-0.780275 0.195336,-0.259831 0.3904,-0.519919 0.585205,-0.780274 0.195337,-0.151458 0.390403,-0.303176 0.585206,-0.45516 0.187885,-0.156656 0.375493,-0.313565 0.562848,-0.47075 1.806723,-0.01621 3.613106,-0.03269 5.419261,-0.04943 0.325386,0.151987 0.650494,0.303704 0.975344,0.45516 l 0.45516,0.45516 c 0.238687,0.282038 0.4771,0.563798 0.715253,0.845298 0.04361,0.195337 0.08696,0.390404 0.130045,0.585206 0.02194,12.875061 0.04361,25.749342 0.06502,38.623617 -0.06476,0.41208 -0.129781,0.82388 -0.195068,1.23543 -0.173134,0.23869 -0.346525,0.4771 -0.520184,0.71525 -0.259832,0.26037 -0.519918,0.52045 -0.780275,0.78028 -0.194808,0.0653 -0.389873,0.13031 -0.585206,0.19507 -1.71204,0.0436 -3.424275,0.087 -5.136809,0.13004 -0.281509,-0.12978 -0.563269,-0.25982 -0.845299,-0.39013 -0.259832,-0.19481 -0.51992,-0.38988 -0.780275,-0.58521 -0.173133,-0.19481 -0.346525,-0.38987 -0.520184,-0.58521 -0.116046,-0.324648 -0.231897,-0.649757 -0.347558,-0.97534 -0.03615,2.63e-4 -0.072,2.62e-4 -0.107598,-4e-6 z"
           sodipodi:nodetypes="scccccccccccccccccccss"
           clip-path="url(#clipPath873)"
           transform="translate(-1.5856452,-0.42471831)" />
        <path
           style="fill:none;stroke:#000000;stroke-width:1.5;stroke-linecap:butt;stroke-linejoin:miter;stroke-miterlimit:4;stroke-dasharray:none;stroke-opacity:1"
           d="m -60.194133,90.83706 c -0.007,-6.491322 0.01471,-19.47423 0.06887,-26.095788 0.05416,-6.621557 0.140856,-6.881643 0.281751,-7.141794 0.140896,-0.260152 0.335961,-0.520239 0.531065,-0.726182 0.195105,-0.205942 0.390171,-0.35766 0.581509,-0.511976 0.191339,-0.154317 0.378947,-0.311226 1.376104,-0.397915 0.997158,-0.08669 2.803541,-0.103166 3.869339,-0.03547 1.065799,0.0677 1.390907,0.219416 1.553305,0.295201 0.162398,0.07579 0.617558,0.530946 0.73689,0.671975 0.119332,0.141028 0.357745,0.422789 0.498542,0.661219 0.140796,0.23843 0.184145,0.433497 0.216621,6.968407 0.03248,6.53491 0.05415,19.409191 0.03246,26.052345 -0.02169,6.643154 -0.08671,7.054954 -0.205926,7.379988 -0.119212,0.325034 -0.292602,0.563445 -0.509331,0.81268 -0.21673,0.249235 -0.476812,0.509319 -0.704317,0.671852 -0.227505,0.162534 -0.422566,0.227555 -1.376203,0.281763 -0.953638,0.05421 -2.665874,0.09755 -3.662864,0.05428 -0.99699,-0.04327 -1.27875,-0.173314 -1.549693,-0.335835 -0.270943,-0.162521 -0.531032,-0.357589 -0.7478,-0.552631 -0.216767,-0.195043 -0.390156,-0.390106 -0.534842,-0.650163 -0.144686,-0.260057 -0.260537,-0.585166 -0.336602,-0.747901 -0.07606,-0.162735 -0.111915,-0.162737 -0.118878,-6.65406 z"
           id="path882"
           inkscape:path-effect="#path-effect896"
           inkscape:original-d="m -60.222768,97.328382 c 0.02193,-12.982644 0.04361,-25.965552 0.06502,-38.948728 0.08697,-0.259831 0.17366,-0.519919 0.260094,-0.780275 0.195336,-0.259831 0.3904,-0.519919 0.585205,-0.780274 0.195337,-0.151458 0.390403,-0.303176 0.585206,-0.45516 0.187885,-0.156656 0.375493,-0.313565 0.562848,-0.47075 1.806723,-0.01621 3.613106,-0.03269 5.419261,-0.04943 0.325386,0.151987 0.650494,0.303704 0.975344,0.45516 l 0.45516,0.45516 c 0.238687,0.282038 0.4771,0.563798 0.715253,0.845298 0.04361,0.195337 0.08696,0.390404 0.130045,0.585206 0.02194,12.875061 0.04361,25.749342 0.06502,38.623617 -0.06476,0.41208 -0.129781,0.82388 -0.195068,1.23543 -0.173134,0.23869 -0.346525,0.4771 -0.520184,0.71525 -0.259832,0.26037 -0.519918,0.52045 -0.780275,0.78028 -0.194808,0.0653 -0.389873,0.13031 -0.585206,0.19507 -1.71204,0.0436 -3.424275,0.087 -5.136809,0.13004 -0.281509,-0.12978 -0.563269,-0.25982 -0.845299,-0.39013 -0.259832,-0.19481 -0.51992,-0.38988 -0.780275,-0.58521 -0.173133,-0.19481 -0.346525,-0.38987 -0.520184,-0.58521 -0.116046,-0.324648 -0.231897,-0.649757 -0.347558,-0.97534 -0.03615,2.63e-4 -0.072,2.62e-4 -0.107598,-4e-6 z"
           sodipodi:nodetypes="scccccccccccccccccccss"
           clip-path="url(#clipPath873)"
           transform="matrix(-1,0,0,1,-112.13163,-0.42471831)" />
      </g>
      <g
         id="g890"
         style="fill:#4d4d4d;stroke:#ffffff;stroke-width:0.924857;stroke-miterlimit:4;stroke-dasharray:none"
         transform="matrix(0.37365895,0,0,0.2815906,-39.085153,39.497727)">
        <path
           style="fill:#4d4d4d;stroke:#ffffff;stroke-width:0.924857;stroke-linecap:butt;stroke-linejoin:miter;stroke-miterlimit:4;stroke-dasharray:none;stroke-opacity:1"
           d="m -60.194133,90.83706 c -0.007,-6.491322 0.01471,-19.47423 0.06887,-26.095788 0.05416,-6.621557 0.140856,-6.881643 0.281751,-7.141794 0.140896,-0.260152 0.335961,-0.520239 0.531065,-0.726182 0.195105,-0.205942 0.390171,-0.35766 0.581509,-0.511976 0.191339,-0.154317 0.378947,-0.311226 1.376104,-0.397915 0.997158,-0.08669 2.803541,-0.103166 3.869339,-0.03547 1.065799,0.0677 1.390907,0.219416 1.553305,0.295201 0.162398,0.07579 0.617558,0.530946 0.73689,0.671975 0.119332,0.141028 0.357745,0.422789 0.498542,0.661219 0.140796,0.23843 0.184145,0.433497 0.216621,6.968407 0.03248,6.53491 0.05415,19.409191 0.03246,26.052345 -0.02169,6.643154 -0.08671,7.054954 -0.205926,7.379988 -0.119212,0.325034 -0.292602,0.563445 -0.509331,0.81268 -0.21673,0.249235 -0.476812,0.509319 -0.704317,0.671852 -0.227505,0.162534 -0.422566,0.227555 -1.376203,0.281763 -0.953638,0.05421 -2.665874,0.09755 -3.662864,0.05428 -0.99699,-0.04327 -1.27875,-0.173314 -1.549693,-0.335835 -0.270943,-0.162521 -0.531032,-0.357589 -0.7478,-0.552631 -0.216767,-0.195043 -0.390156,-0.390106 -0.534842,-0.650163 -0.144686,-0.260057 -0.260537,-0.585166 -0.336602,-0.747901 -0.07606,-0.162735 -0.111915,-0.162737 -0.118878,-6.65406 z"
           id="path886"
           inkscape:path-effect="#path-effect898"
           inkscape:original-d="m -60.222768,97.328382 c 0.02193,-12.982644 0.04361,-25.965552 0.06502,-38.948728 0.08697,-0.259831 0.17366,-0.519919 0.260094,-0.780275 0.195336,-0.259831 0.3904,-0.519919 0.585205,-0.780274 0.195337,-0.151458 0.390403,-0.303176 0.585206,-0.45516 0.187885,-0.156656 0.375493,-0.313565 0.562848,-0.47075 1.806723,-0.01621 3.613106,-0.03269 5.419261,-0.04943 0.325386,0.151987 0.650494,0.303704 0.975344,0.45516 l 0.45516,0.45516 c 0.238687,0.282038 0.4771,0.563798 0.715253,0.845298 0.04361,0.195337 0.08696,0.390404 0.130045,0.585206 0.02194,12.875061 0.04361,25.749342 0.06502,38.623617 -0.06476,0.41208 -0.129781,0.82388 -0.195068,1.23543 -0.173134,0.23869 -0.346525,0.4771 -0.520184,0.71525 -0.259832,0.26037 -0.519918,0.52045 -0.780275,0.78028 -0.194808,0.0653 -0.389873,0.13031 -0.585206,0.19507 -1.71204,0.0436 -3.424275,0.087 -5.136809,0.13004 -0.281509,-0.12978 -0.563269,-0.25982 -0.845299,-0.39013 -0.259832,-0.19481 -0.51992,-0.38988 -0.780275,-0.58521 -0.173133,-0.19481 -0.346525,-0.38987 -0.520184,-0.58521 -0.116046,-0.324648 -0.231897,-0.649757 -0.347558,-0.97534 -0.03615,2.63e-4 -0.072,2.62e-4 -0.107598,-4e-6 z"
           sodipodi:nodetypes="scccccccccccccccccccss"
           clip-path="url(#clipPath873)"
           transform="translate(-1.5856452,-0.42471831)" />
        <path
           style="fill:#4d4d4d;stroke:#ffffff;stroke-width:0.924857;stroke-linecap:butt;stroke-linejoin:miter;stroke-miterlimit:4;stroke-dasharray:none;stroke-opacity:1"
           d="m -60.194133,90.83706 c -0.007,-6.491322 0.01471,-19.47423 0.06887,-26.095788 0.05416,-6.621557 0.140856,-6.881643 0.281751,-7.141794 0.140896,-0.260152 0.335961,-0.520239 0.531065,-0.726182 0.195105,-0.205942 0.390171,-0.35766 0.581509,-0.511976 0.191339,-0.154317 0.378947,-0.311226 1.376104,-0.397915 0.997158,-0.08669 2.803541,-0.103166 3.869339,-0.03547 1.065799,0.0677 1.390907,0.219416 1.553305,0.295201 0.162398,0.07579 0.617558,0.530946 0.73689,0.671975 0.119332,0.141028 0.357745,0.422789 0.498542,0.661219 0.140796,0.23843 0.184145,0.433497 0.216621,6.968407 0.03248,6.53491 0.05415,19.409191 0.03246,26.052345 -0.02169,6.643154 -0.08671,7.054954 -0.205926,7.379988 -0.119212,0.325034 -0.292602,0.563445 -0.509331,0.81268 -0.21673,0.249235 -0.476812,0.509319 -0.704317,0.671852 -0.227505,0.162534 -0.422566,0.227555 -1.376203,0.281763 -0.953638,0.05421 -2.665874,0.09755 -3.662864,0.05428 -0.99699,-0.04327 -1.27875,-0.173314 -1.549693,-0.335835 -0.270943,-0.162521 -0.531032,-0.357589 -0.7478,-0.552631 -0.216767,-0.195043 -0.390156,-0.390106 -0.534842,-0.650163 -0.144686,-0.260057 -0.260537,-0.585166 -0.336602,-0.747901 -0.07606,-0.162735 -0.111915,-0.162737 -0.118878,-6.65406 z"
           id="path888"
           inkscape:path-effect="#path-effect900"
           inkscape:original-d="m -60.222768,97.328382 c 0.02193,-12.982644 0.04361,-25.965552 0.06502,-38.948728 0.08697,-0.259831 0.17366,-0.519919 0.260094,-0.780275 0.195336,-0.259831 0.3904,-0.519919 0.585205,-0.780274 0.195337,-0.151458 0.390403,-0.303176 0.585206,-0.45516 0.187885,-0.156656 0.375493,-0.313565 0.562848,-0.47075 1.806723,-0.01621 3.613106,-0.03269 5.419261,-0.04943 0.325386,0.151987 0.650494,0.303704 0.975344,0.45516 l 0.45516,0.45516 c 0.238687,0.282038 0.4771,0.563798 0.715253,0.845298 0.04361,0.195337 0.08696,0.390404 0.130045,0.585206 0.02194,12.875061 0.04361,25.749342 0.06502,38.623617 -0.06476,0.41208 -0.129781,0.82388 -0.195068,1.23543 -0.173134,0.23869 -0.346525,0.4771 -0.520184,0.71525 -0.259832,0.26037 -0.519918,0.52045 -0.780275,0.78028 -0.194808,0.0653 -0.389873,0.13031 -0.585206,0.19507 -1.71204,0.0436 -3.424275,0.087 -5.136809,0.13004 -0.281509,-0.12978 -0.563269,-0.25982 -0.845299,-0.39013 -0.259832,-0.19481 -0.51992,-0.38988 -0.780275,-0.58521 -0.173133,-0.19481 -0.346525,-0.38987 -0.520184,-0.58521 -0.116046,-0.324648 -0.231897,-0.649757 -0.347558,-0.97534 -0.03615,2.63e-4 -0.072,2.62e-4 -0.107598,-4e-6 z"
           sodipodi:nodetypes="scccccccccccccccccccss"
           clip-path="url(#clipPath873)"
           transform="matrix(-1,0,0,1,-112.13163,-0.42471831)" />
      </g>
    </g>
    <g
       id="g914"
       transform="matrix(0.46019386,0,0,0.57898928,-38.900873,26.577187)"
       inkscape:export-xdpi="96"
       inkscape:export-ydpi="96">
      <g
         id="g906"
         style="fill:none;stroke:#000000;stroke-width:1.5;stroke-miterlimit:4;stroke-dasharray:none"
         transform="matrix(0.40813965,0,0,0.29131806,-37.097628,38.771671)">
        <path
           style="fill:none;stroke:#000000;stroke-width:1.5;stroke-linecap:butt;stroke-linejoin:miter;stroke-miterlimit:4;stroke-dasharray:none;stroke-opacity:1"
           d="m -60.194133,90.83706 c -0.007,-6.491322 0.01471,-19.47423 0.06887,-26.095788 0.05416,-6.621557 0.140856,-6.881643 0.281751,-7.141794 0.140896,-0.260152 0.335961,-0.520239 0.531065,-0.726182 0.195105,-0.205942 0.390171,-0.35766 0.581509,-0.511976 0.191339,-0.154317 0.378947,-0.311226 1.376104,-0.397915 0.997158,-0.08669 2.803541,-0.103166 3.869339,-0.03547 1.065799,0.0677 1.390907,0.219416 1.553305,0.295201 0.162398,0.07579 0.617558,0.530946 0.73689,0.671975 0.119332,0.141028 0.357745,0.422789 0.498542,0.661219 0.140796,0.23843 0.184145,0.433497 0.216621,6.968407 0.03248,6.53491 0.05415,19.409191 0.03246,26.052345 -0.02169,6.643154 -0.08671,7.054954 -0.205926,7.379988 -0.119212,0.325034 -0.292602,0.563445 -0.509331,0.81268 -0.21673,0.249235 -0.476812,0.509319 -0.704317,0.671852 -0.227505,0.162534 -0.422566,0.227555 -1.376203,0.281763 -0.953638,0.05421 -2.665874,0.09755 -3.662864,0.05428 -0.99699,-0.04327 -1.27875,-0.173314 -1.549693,-0.335835 -0.270943,-0.162521 -0.531032,-0.357589 -0.7478,-0.552631 -0.216767,-0.195043 -0.390156,-0.390106 -0.534842,-0.650163 -0.144686,-0.260057 -0.260537,-0.585166 -0.336602,-0.747901 -0.07606,-0.162735 -0.111915,-0.162737 -0.118878,-6.65406 z"
           id="path902"
           inkscape:path-effect="#path-effect916"
           inkscape:original-d="m -60.222768,97.328382 c 0.02193,-12.982644 0.04361,-25.965552 0.06502,-38.948728 0.08697,-0.259831 0.17366,-0.519919 0.260094,-0.780275 0.195336,-0.259831 0.3904,-0.519919 0.585205,-0.780274 0.195337,-0.151458 0.390403,-0.303176 0.585206,-0.45516 0.187885,-0.156656 0.375493,-0.313565 0.562848,-0.47075 1.806723,-0.01621 3.613106,-0.03269 5.419261,-0.04943 0.325386,0.151987 0.650494,0.303704 0.975344,0.45516 l 0.45516,0.45516 c 0.238687,0.282038 0.4771,0.563798 0.715253,0.845298 0.04361,0.195337 0.08696,0.390404 0.130045,0.585206 0.02194,12.875061 0.04361,25.749342 0.06502,38.623617 -0.06476,0.41208 -0.129781,0.82388 -0.195068,1.23543 -0.173134,0.23869 -0.346525,0.4771 -0.520184,0.71525 -0.259832,0.26037 -0.519918,0.52045 -0.780275,0.78028 -0.194808,0.0653 -0.389873,0.13031 -0.585206,0.19507 -1.71204,0.0436 -3.424275,0.087 -5.136809,0.13004 -0.281509,-0.12978 -0.563269,-0.25982 -0.845299,-0.39013 -0.259832,-0.19481 -0.51992,-0.38988 -0.780275,-0.58521 -0.173133,-0.19481 -0.346525,-0.38987 -0.520184,-0.58521 -0.116046,-0.324648 -0.231897,-0.649757 -0.347558,-0.97534 -0.03615,2.63e-4 -0.072,2.62e-4 -0.107598,-4e-6 z"
           sodipodi:nodetypes="scccccccccccccccccccss"
           clip-path="url(#clipPath873)"
           transform="translate(-1.5856452,-0.42471831)" />
        <path
           style="fill:none;stroke:#000000;stroke-width:1.5;stroke-linecap:butt;stroke-linejoin:miter;stroke-miterlimit:4;stroke-dasharray:none;stroke-opacity:1"
           d="m -60.194133,90.83706 c -0.007,-6.491322 0.01471,-19.47423 0.06887,-26.095788 0.05416,-6.621557 0.140856,-6.881643 0.281751,-7.141794 0.140896,-0.260152 0.335961,-0.520239 0.531065,-0.726182 0.195105,-0.205942 0.390171,-0.35766 0.581509,-0.511976 0.191339,-0.154317 0.378947,-0.311226 1.376104,-0.397915 0.997158,-0.08669 2.803541,-0.103166 3.869339,-0.03547 1.065799,0.0677 1.390907,0.219416 1.553305,0.295201 0.162398,0.07579 0.617558,0.530946 0.73689,0.671975 0.119332,0.141028 0.357745,0.422789 0.498542,0.661219 0.140796,0.23843 0.184145,0.433497 0.216621,6.968407 0.03248,6.53491 0.05415,19.409191 0.03246,26.052345 -0.02169,6.643154 -0.08671,7.054954 -0.205926,7.379988 -0.119212,0.325034 -0.292602,0.563445 -0.509331,0.81268 -0.21673,0.249235 -0.476812,0.509319 -0.704317,0.671852 -0.227505,0.162534 -0.422566,0.227555 -1.376203,0.281763 -0.953638,0.05421 -2.665874,0.09755 -3.662864,0.05428 -0.99699,-0.04327 -1.27875,-0.173314 -1.549693,-0.335835 -0.270943,-0.162521 -0.531032,-0.357589 -0.7478,-0.552631 -0.216767,-0.195043 -0.390156,-0.390106 -0.534842,-0.650163 -0.144686,-0.260057 -0.260537,-0.585166 -0.336602,-0.747901 -0.07606,-0.162735 -0.111915,-0.162737 -0.118878,-6.65406 z"
           id="path904"
           inkscape:path-effect="#path-effect918"
           inkscape:original-d="m -60.222768,97.328382 c 0.02193,-12.982644 0.04361,-25.965552 0.06502,-38.948728 0.08697,-0.259831 0.17366,-0.519919 0.260094,-0.780275 0.195336,-0.259831 0.3904,-0.519919 0.585205,-0.780274 0.195337,-0.151458 0.390403,-0.303176 0.585206,-0.45516 0.187885,-0.156656 0.375493,-0.313565 0.562848,-0.47075 1.806723,-0.01621 3.613106,-0.03269 5.419261,-0.04943 0.325386,0.151987 0.650494,0.303704 0.975344,0.45516 l 0.45516,0.45516 c 0.238687,0.282038 0.4771,0.563798 0.715253,0.845298 0.04361,0.195337 0.08696,0.390404 0.130045,0.585206 0.02194,12.875061 0.04361,25.749342 0.06502,38.623617 -0.06476,0.41208 -0.129781,0.82388 -0.195068,1.23543 -0.173134,0.23869 -0.346525,0.4771 -0.520184,0.71525 -0.259832,0.26037 -0.519918,0.52045 -0.780275,0.78028 -0.194808,0.0653 -0.389873,0.13031 -0.585206,0.19507 -1.71204,0.0436 -3.424275,0.087 -5.136809,0.13004 -0.281509,-0.12978 -0.563269,-0.25982 -0.845299,-0.39013 -0.259832,-0.19481 -0.51992,-0.38988 -0.780275,-0.58521 -0.173133,-0.19481 -0.346525,-0.38987 -0.520184,-0.58521 -0.116046,-0.324648 -0.231897,-0.649757 -0.347558,-0.97534 -0.03615,2.63e-4 -0.072,2.62e-4 -0.107598,-4e-6 z"
           sodipodi:nodetypes="scccccccccccccccccccss"
           clip-path="url(#clipPath873)"
           transform="matrix(-1,0,0,1,-112.13163,-0.42471831)" />
      </g>
      <g
         id="g912"
         style="fill:#4d4d4d;stroke:#ffffff;stroke-width:0.924857;stroke-miterlimit:4;stroke-dasharray:none"
         transform="matrix(0.37365895,0,0,0.2815906,-39.085153,39.497727)">
        <path
           style="fill:#4d4d4d;stroke:#ffffff;stroke-width:0.924857;stroke-linecap:butt;stroke-linejoin:miter;stroke-miterlimit:4;stroke-dasharray:none;stroke-opacity:1"
           d="m -60.194133,90.83706 c -0.007,-6.491322 0.01471,-19.47423 0.06887,-26.095788 0.05416,-6.621557 0.140856,-6.881643 0.281751,-7.141794 0.140896,-0.260152 0.335961,-0.520239 0.531065,-0.726182 0.195105,-0.205942 0.390171,-0.35766 0.581509,-0.511976 0.191339,-0.154317 0.378947,-0.311226 1.376104,-0.397915 0.997158,-0.08669 2.803541,-0.103166 3.869339,-0.03547 1.065799,0.0677 1.390907,0.219416 1.553305,0.295201 0.162398,0.07579 0.617558,0.530946 0.73689,0.671975 0.119332,0.141028 0.357745,0.422789 0.498542,0.661219 0.140796,0.23843 0.184145,0.433497 0.216621,6.968407 0.03248,6.53491 0.05415,19.409191 0.03246,26.052345 -0.02169,6.643154 -0.08671,7.054954 -0.205926,7.379988 -0.119212,0.325034 -0.292602,0.563445 -0.509331,0.81268 -0.21673,0.249235 -0.476812,0.509319 -0.704317,0.671852 -0.227505,0.162534 -0.422566,0.227555 -1.376203,0.281763 -0.953638,0.05421 -2.665874,0.09755 -3.662864,0.05428 -0.99699,-0.04327 -1.27875,-0.173314 -1.549693,-0.335835 -0.270943,-0.162521 -0.531032,-0.357589 -0.7478,-0.552631 -0.216767,-0.195043 -0.390156,-0.390106 -0.534842,-0.650163 -0.144686,-0.260057 -0.260537,-0.585166 -0.336602,-0.747901 -0.07606,-0.162735 -0.111915,-0.162737 -0.118878,-6.65406 z"
           id="path908"
           inkscape:path-effect="#path-effect920"
           inkscape:original-d="m -60.222768,97.328382 c 0.02193,-12.982644 0.04361,-25.965552 0.06502,-38.948728 0.08697,-0.259831 0.17366,-0.519919 0.260094,-0.780275 0.195336,-0.259831 0.3904,-0.519919 0.585205,-0.780274 0.195337,-0.151458 0.390403,-0.303176 0.585206,-0.45516 0.187885,-0.156656 0.375493,-0.313565 0.562848,-0.47075 1.806723,-0.01621 3.613106,-0.03269 5.419261,-0.04943 0.325386,0.151987 0.650494,0.303704 0.975344,0.45516 l 0.45516,0.45516 c 0.238687,0.282038 0.4771,0.563798 0.715253,0.845298 0.04361,0.195337 0.08696,0.390404 0.130045,0.585206 0.02194,12.875061 0.04361,25.749342 0.06502,38.623617 -0.06476,0.41208 -0.129781,0.82388 -0.195068,1.23543 -0.173134,0.23869 -0.346525,0.4771 -0.520184,0.71525 -0.259832,0.26037 -0.519918,0.52045 -0.780275,0.78028 -0.194808,0.0653 -0.389873,0.13031 -0.585206,0.19507 -1.71204,0.0436 -3.424275,0.087 -5.136809,0.13004 -0.281509,-0.12978 -0.563269,-0.25982 -0.845299,-0.39013 -0.259832,-0.19481 -0.51992,-0.38988 -0.780275,-0.58521 -0.173133,-0.19481 -0.346525,-0.38987 -0.520184,-0.58521 -0.116046,-0.324648 -0.231897,-0.649757 -0.347558,-0.97534 -0.03615,2.63e-4 -0.072,2.62e-4 -0.107598,-4e-6 z"
           sodipodi:nodetypes="scccccccccccccccccccss"
           clip-path="url(#clipPath873)"
           transform="translate(-1.5856452,-0.42471831)" />
        <path
           style="fill:#4d4d4d;stroke:#ffffff;stroke-width:0.924857;stroke-linecap:butt;stroke-linejoin:miter;stroke-miterlimit:4;stroke-dasharray:none;stroke-opacity:1"
           d="m -60.194133,90.83706 c -0.007,-6.491322 0.01471,-19.47423 0.06887,-26.095788 0.05416,-6.621557 0.140856,-6.881643 0.281751,-7.141794 0.140896,-0.260152 0.335961,-0.520239 0.531065,-0.726182 0.195105,-0.205942 0.390171,-0.35766 0.581509,-0.511976 0.191339,-0.154317 0.378947,-0.311226 1.376104,-0.397915 0.997158,-0.08669 2.803541,-0.103166 3.869339,-0.03547 1.065799,0.0677 1.390907,0.219416 1.553305,0.295201 0.162398,0.07579 0.617558,0.530946 0.73689,0.671975 0.119332,0.141028 0.357745,0.422789 0.498542,0.661219 0.140796,0.23843 0.184145,0.433497 0.216621,6.968407 0.03248,6.53491 0.05415,19.409191 0.03246,26.052345 -0.02169,6.643154 -0.08671,7.054954 -0.205926,7.379988 -0.119212,0.325034 -0.292602,0.563445 -0.509331,0.81268 -0.21673,0.249235 -0.476812,0.509319 -0.704317,0.671852 -0.227505,0.162534 -0.422566,0.227555 -1.376203,0.281763 -0.953638,0.05421 -2.665874,0.09755 -3.662864,0.05428 -0.99699,-0.04327 -1.27875,-0.173314 -1.549693,-0.335835 -0.270943,-0.162521 -0.531032,-0.357589 -0.7478,-0.552631 -0.216767,-0.195043 -0.390156,-0.390106 -0.534842,-0.650163 -0.144686,-0.260057 -0.260537,-0.585166 -0.336602,-0.747901 -0.07606,-0.162735 -0.111915,-0.162737 -0.118878,-6.65406 z"
           id="path910"
           inkscape:path-effect="#path-effect922"
           inkscape:original-d="m -60.222768,97.328382 c 0.02193,-12.982644 0.04361,-25.965552 0.06502,-38.948728 0.08697,-0.259831 0.17366,-0.519919 0.260094,-0.780275 0.195336,-0.259831 0.3904,-0.519919 0.585205,-0.780274 0.195337,-0.151458 0.390403,-0.303176 0.585206,-0.45516 0.187885,-0.156656 0.375493,-0.313565 0.562848,-0.47075 1.806723,-0.01621 3.613106,-0.03269 5.419261,-0.04943 0.325386,0.151987 0.650494,0.303704 0.975344,0.45516 l 0.45516,0.45516 c 0.238687,0.282038 0.4771,0.563798 0.715253,0.845298 0.04361,0.195337 0.08696,0.390404 0.130045,0.585206 0.02194,12.875061 0.04361,25.749342 0.06502,38.623617 -0.06476,0.41208 -0.129781,0.82388 -0.195068,1.23543 -0.173134,0.23869 -0.346525,0.4771 -0.520184,0.71525 -0.259832,0.26037 -0.519918,0.52045 -0.780275,0.78028 -0.194808,0.0653 -0.389873,0.13031 -0.585206,0.19507 -1.71204,0.0436 -3.424275,0.087 -5.136809,0.13004 -0.281509,-0.12978 -0.563269,-0.25982 -0.845299,-0.39013 -0.259832,-0.19481 -0.51992,-0.38988 -0.780275,-0.58521 -0.173133,-0.19481 -0.346525,-0.38987 -0.520184,-0.58521 -0.116046,-0.324648 -0.231897,-0.649757 -0.347558,-0.97534 -0.03615,2.63e-4 -0.072,2.62e-4 -0.107598,-4e-6 z"
           sodipodi:nodetypes="scccccccccccccccccccss"
           clip-path="url(#clipPath873)"
           transform="matrix(-1,0,0,1,-112.13163,-0.42471831)" />
      </g>
    </g>
  </g>
</svg>
